<svg xmlns="http://www.w3.org/2000/svg" viewBox="0 0 512 512" id="origami-crane">
  <path d="M499.551,387.2,384.212,285.052l66.058-171.9a6.983,6.983,0,0,0-11.921-6.931L303.991,270.4l-28.469-10.579L262.986,202.77a7.007,7.007,0,0,0-3.206-4.469L49.184,71.012a6.983,6.983,0,0,0-10.4,7.632L79.4,244.513l-2.45.376a7.948,7.948,0,0,0-3.865,1.736L12.49,296.805a6.862,6.862,0,0,0,6.4,11.841l71.946-22.2,53.13,129.2a10.052,10.052,0,0,0,2.7,3.759l23.24,20.146a10.036,10.036,0,0,0,12.753.314l54.578-42.755,2.815.776a6.021,6.021,0,0,0,1.551.216l253.07,1.8h.056a7.26,7.26,0,0,0,4.815-12.7ZM119.793,266.919l63.144,73.437-15.629,31.479.009,0a7.866,7.866,0,0,0-.89,4.137l1.082,16.923L114.285,275.6ZM56.834,101.9l96.011,127.07L82.052,204.9Zm62.91,63.355L67.489,96.1l154.682,93.493ZM131.1,180.289l56.54,13.432,39.2,56.571-23.111,26.119Zm77.1,109.17L188.73,328.687l-7.508-8.732Zm26.61-26.613,22.408,52.189-70.079,43.828Zm12.8-.6,58.969,21.914L267.52,308.6Zm74.413,26.409,44.368-3.348L470.666,377.65l-185.557-65.9Zm84.188-94.332-38.7,17.394,60.362-73.756ZM350.487,232.53l49.624-22.3-25.49,66.33-2.161-1.914a6.027,6.027,0,0,0-4.43-1.493L320.966,276.7l-5.085-1.889Zm-88.344,22.314-23.638-8.784-33.388-48.187,46.958,11.156Zm-176.7-36.119,80.3,27.3,29.884,39.551-22.291,25.192-49.232-57.257a7.933,7.933,0,0,0-2.241-1.809L104.5,242.3a8,8,0,0,0-5-.871l-8.19,1.258Zm-5.564,37.856,20.1-3.086,10.513,5.7-6.816,10.741c-.036.01-.073.017-.109.028l-63.5,19.6Zm22.48,26.311,1.809-.558,63.078,139.019-12.352-10.707Zm79.26,142.552-2.843-44.452,44.078,12.149Zm7.933-53.929,82.575-51.643,190.908,67.8-220.544-1.567Z"></path>
</svg>
